<svg xmlns="http://www.w3.org/2000/svg" width="499" height="430" viewBox="0 0 499 430">
    <g fill="none" fill-rule="evenodd">
        <path fill="#777E81" d="M230.193 429.615L243.182 429.615 243.182 323.396 230.193 323.396z"/>
        <path fill="#505E64" d="M238.078 429.615L243.179 429.615 243.179 323.396 238.078 323.396z"/>
        <path fill="#777E81" d="M273.993 420.917h-70.99a4.35 4.35 0 000 8.698h70.99a4.35 4.35 0 000-8.698"/>
        <path fill="#505E64" d="M273.993 420.917H203c-1.581 0-2.952.853-3.714 2.115h61.483a4.35 4.35 0 014.349 4.35c0 .819-.24 1.58-.636 2.233h9.51a4.35 4.35 0 000-8.698M230.193 332.853L243.182 332.853 243.182 323.396 230.193 323.396z"/>
        <path fill="#F93" d="M310.464 175.305a14.786 14.786 0 00-6.012-1.258H231.34a14.888 14.888 0 00-14.623 12.092l-22.913 119.778a14.98 14.98 0 000 5.633c.009.04.022.08.03.122h-20.325a6.057 6.057 0 000 12.112h65.7v-.182h42.346c7.143 0 13.28-5.075 14.623-12.094l22.898-119.776c1.342-7.06-2.502-13.728-8.611-16.427"/>
        <path fill="#777E81" d="M319.071 191.732l-22.893 119.78c-1.337 7.015-7.476 12.083-14.617 12.083h-42.354v.193h-65.694a6.054 6.054 0 01-6.057-6.06 6.053 6.053 0 016.057-6.055h20.325c-.015-.048-.031-.08-.031-.128.175.016.382.016.557.016h73.106c9.82 0 18.283-6.983 20.117-16.628l22.876-119.62c6.105 2.695 9.948 9.358 8.608 16.419"/>
        <path fill="#FFF" d="M287.731 294.217l-.144.716c-1.833 9.646-10.297 16.627-20.116 16.627h-73.106c-.175 0-.382 0-.559-.015 0 .048.016.079.032.128h-20.324c-3.03 0-5.548 2.23-5.978 5.132v-16.372c0-.031-.016-.08-.016-.127-.478-3.236 2.247-6.09 5.532-6.09h114.68z"/>
        <path fill="#E2E4EB" d="M310.464 175.305L287.593 294.93c-1.845 9.646-10.303 16.634-20.116 16.634h-73.113c-.181 0-.378 0-.56-.013a14.98 14.98 0 010-5.633l22.912-119.778a14.888 14.888 0 0114.623-12.092h73.113c2.153 0 4.18.447 6.012 1.258"/>
        <path fill="#D9E1FA" d="M137.199 146.59H12.736a4.746 4.746 0 00-4.698 5.432l10.656 73.18a4.75 4.75 0 004.7 4.063h124.462a4.748 4.748 0 004.698-5.432l-10.657-73.18a4.748 4.748 0 00-4.698-4.064"/>
        <path fill="#AEB7D3" d="M119.787 146.59H12.737a4.748 4.748 0 00-4.7 5.432l4.71 32.344c11.477 5.02 24.488 7.873 38.291 7.873 35.691 0 56.722-18.962 68.75-45.65M80.735 202.445H57.169c-2.037 0-3.6 1.8-3.307 3.816l7.142 49.01c0 .152.009.313.029.465l.321 1.931a3.333 3.333 0 003.295 2.85H87.91l-7.175-58.072z"/>
        <path fill="#D9E1FA" d="M115.146 257.092a3.38 3.38 0 00-3.378-3.327h-17.83a5.257 5.257 0 01-5.208-4.543l-5.225-38.176h3.098a3.334 3.334 0 003.3-3.815l-.316-1.934a3.337 3.337 0 00-3.3-2.855l-6.184.001a4.662 4.662 0 00-4.62 5.282L82 256.292a4.874 4.874 0 004.83 4.226l24.937.004a3.376 3.376 0 003.378-3.43"/>
        <path fill="#4286E8" d="M102.334 218.697a2.232 2.232 0 11-4.463.002 2.232 2.232 0 014.463-.002M113.795 218.697a2.232 2.232 0 11-4.463.002 2.232 2.232 0 014.463-.002M123.835 218.697a2.232 2.232 0 11-4.463.002 2.232 2.232 0 014.463-.002"/>
        <path fill="#AEB7D3" d="M134.784 180.53l6.505 44.671a4.75 4.75 0 004.7 4.064h1.867a4.748 4.748 0 004.698-5.432l-10.657-73.18a4.748 4.748 0 00-4.698-4.064h-1.87a4.748 4.748 0 00-4.698 5.432l4.153 28.51"/>
        <path fill="#FFF" d="M87.694 154.578H44.229a1.725 1.725 0 00-1.703 2l.291 1.801a1.725 1.725 0 001.705 1.448h43.463a1.724 1.724 0 001.702-2l-.29-1.8a1.725 1.725 0 00-1.703-1.449"/>
        <path fill="#13448C" d="M264.146 176.88c-1.378-10.593-16.896-5.639-11.07-15.51 5.386-9.13-.884-13.17-8.293-14.594-9.448-1.817-4.084-5.536-8.682-14.354-5.84-11.201-14.853-7.874-14.853-7.874s-11.298-6.14-22.806 3.57c-12.127 10.232-9.483 19.282-2.991 31.713 3.28 6.282-.746 11.878-3.618 23.428-3.445 13.856 13.663 41.747 50.268 22.908 14.155-7.286 22.777-23.665 22.045-29.287"/>
        <path fill="#F95858" d="M213.583 179.776s-5.588.6-11.275 6.286c-3.823 3.823-22.538 41.073-22.538 41.073l-17.272-52.897-12.647.973s14.241 85.073 25.318 85.233c10.477.149 43.752-54.926 43.752-54.926l-5.338-25.742z"/>
        <path fill="#F95858" d="M264.753 177.113c-8.93-6.679-33.615-4.897-33.615-4.897l-17.593 7.401s-20.403 20.03-8.221 38.884c4.924 7.618 4.1 18.913 2.133 28.116L195 247.626l.296 11.635 8.512.037c-.663 1.83-1.119 2.904-1.119 2.904l41.546 2.45 37.104.348-2.815-5.524c2.44-.006 4.428-.016 5.819-.031 9.401-.097-8.299-73.887-19.59-82.332"/>
        <path fill="#E54848" d="M207.521 247.851l2.344-.428c2.246-9.802 2.647-23.196-2.468-29.634-10.136-12.754.3-31.279 6.159-37.976h-.009c-.938.947-20.216 20.776-8.245 39.476 5.719 8.931 4.322 20.56 2.22 28.562"/>
        <path fill="#FFB19E" d="M195.087 251.614c-6.925.253-14.33 2.73-17.798 6.801-.769.905-.114 2.298 1.073 2.298h16.832l-.107-9.1zM231.316 158.336v13.98l-12.53 14.346-.079-.159-3.412-7.3v-7.843c-6.249-.877-11.764-5.611-13.246-12.387l-1.77-9.676s9.342-.989 16.77-8.545c0 0 2.232 4.097 5.434 7.27 2.33 2.312 5.548 2.885 6.776 4.145 1.642 1.673 2.232 3.874 2.057 6.169"/>
        <path fill="#FF4751" d="M227.89 146.224s-.473-5.898-2.694-10.922c-2.563-5.793-6.17-12.578-13.657-12.599 0 0 18.18-2.824 21.223 22.483l-4.872 1.038z"/>
        <path fill="#FF4751" d="M238.769 150.383c-.524-4.868-4.603-8.42-9.108-7.933-4.505.485-7.73 4.826-7.206 9.693.527 4.87 4.604 8.42 9.108 7.934 4.506-.486 7.731-4.827 7.206-9.694"/>
        <path fill="#CC3241" d="M233.098 159.219c-4.338.467-8.263-2.952-8.77-7.639-.469-4.343 2.168-8.245 6.009-9.166-.226.004-.45.01-.676.035-4.505.486-7.73 4.827-7.206 9.694.527 4.87 4.604 8.42 9.108 7.934a7.681 7.681 0 003.727-1.452 7.363 7.363 0 01-2.192.594"/>
        <path fill="#CC3241" d="M235.62 150.61c-.255-2.359-2.231-4.08-4.416-3.846-2.183.236-3.747 2.34-3.492 4.698.256 2.36 2.231 4.082 4.416 3.846 2.183-.235 3.747-2.338 3.492-4.698"/>
        <path fill="#F48F7A" d="M227.14 165.43c-.526.686-3.493 4.415-5.867 6.407-.957.798-1.467 1.978-1.467 3.22l-1.1 11.447-3.41-7.302v-7.81l.079-.08s7.89-1.196 11.765-5.883"/>
        <path fill="#FF4751" d="M221.808 164.83l-.138-.797c4.573-.781 7.913-6.929 7.947-6.991l.713.382c-.144.268-3.566 6.559-8.522 7.406"/>
        <path fill="#FF4751" d="M222.66 164.377c-.108-.75-1.243-1.16-2.535-.92-1.291.243-2.251 1.046-2.143 1.795.11.751 1.243 1.162 2.536.92 1.291-.241 2.25-1.045 2.142-1.795"/>
        <path fill="#FFB19E" d="M161.467 174.563s1.785-14.639.178-15.173c-1.606-.537-3.213 5.711-3.213 5.711s-6.784-13.21-11.424-11.782c-4.642 1.428 3.891 21.743 3.891 21.743l10.568-.5z"/>
        <path fill="#E54848" d="M207.497 247.772l51.559-4.313a2.973 2.973 0 002.674-3.537c-1.904-9.638-7.41-37.274-7.74-36.45-.398.997 5.19 32.526-1.397 35.719-4.503 2.183-45.096 8.581-45.096 8.581"/>
        <path fill="#FFB19E" d="M242.56 400.291c-.373.092-.73.31-.982.668-3.28 4.565-6.191 5.643-11.948 6.418a3.38 3.38 0 00-1.08.362c.442-.663 2.36-3.806 1.038-6.635-1.486-3.19-3.283-5.51-3.283-5.51l8.41-5.006s5.157 5.95 7.846 9.703"/>
        <path fill="#13448C" d="M248.787 410.985c-1.486 1.423-25.485 14.541-31.187 17.832-.696.403-2.106 1.138-2.366.377-.404-1.189 9.974-21.214 14.397-21.813 5.753-.779 8.666-1.856 11.943-6.424.685-.957 2.113-.951 2.761.032 2.304 3.485 5.647 8.852 4.452 9.996M202.977 263.627s-58.235 26.995-59.78 45.716c-1.373 16.65 84.454 92.823 84.454 92.823l13.57-5.588-46.973-75.713s49.76-24.526 61.92-54.057l-53.19-3.18z"/>
        <path fill="#09326D" d="M165.862 304.435c-3.95 7.6-6.852 18.216-8.876 27.837 6.593 7.827 14.91 16.64 23.505 25.306-6.35-25.085-11.985-50.243-10.038-53.844 3.714-6.87 28.39-25.14 45.83-34.226 0 0-41.255 17.295-50.42 34.927"/>
        <path fill="#FFB19E" d="M208.25 415.925a1.693 1.693 0 00-1.182.101c-5.093 2.382-8.16 1.901-13.56-.236a3.378 3.378 0 00-1.12-.211c.71-.364 3.918-2.17 4.147-5.283.26-3.51-.174-6.41-.174-6.41l9.785-.26s1.592 7.71 2.105 12.299"/>
        <path fill="#13448C" d="M208.46 429.009c-1.994.515-30.317.202-36.9.288a1.273 1.273 0 01-1.271-1.503c.227-1.234 19.064-13.638 23.217-12 5.4 2.13 8.468 2.615 13.558.23 1.066-.5 2.308.202 2.395 1.376.307 4.164.602 11.195-.999 11.609"/>
        <path fill="#1D54B5" d="M281.671 266.411s4.878 32.978-24.68 41.327c-23.304 6.58-48.29 9.937-48.29 9.937l1.789 93.603h-15.544s-28.533-100.089-24.497-107.54c4.584-8.463 40.892-34.166 56.404-38.805l54.818 1.478z"/>
        <path fill="#0E367C" d="M208.7 317.676s24.987-3.358 48.29-9.938c29.56-8.348 24.682-41.327 24.682-41.327l-18.302-.493c-5.497 11.824-23.378 41.097-66.74 44.254l9.818 101.105h4.042l-1.79-93.601z"/>
        <path fill="#5C7384" d="M16.327 429.601L9.819 429.552 36.877 266.926 43.426 266.874zM284.368 429.547L291.281 429.601 257.734 265.069 250.862 265.121z"/>
        <path fill="#475D6D" d="M41.641 275.891L43.425 266.874 36.878 266.926 35.104 275.891zM259.935 275.891L257.732 265.067 250.863 265.121 253.052 275.891z"/>
        <path fill="#5C7384" d="M297.204 260.624H3.77a3.305 3.305 0 100 6.611h293.435a3.305 3.305 0 100-6.61"/>
        <path fill="#00373E" d="M181.262 116.463L173.53 71.69a4.216 4.216 0 00-4.172-3.61l-71.938.786a4.217 4.217 0 00-4.172 4.826l6.784 39.285 3.431 22.244c.181 1.176 1.715 1.513 2.373.521l9.156-13.776 62.098-.679c2.57 0 4.544-2.28 4.173-4.824"/>
        <path fill="#FFF" d="M155.68 81.972h-41.689c-.718 0-1.265.643-1.15 1.351l.196 1.216c.091.565.579.979 1.15.979h41.69c.719 0 1.266-.643 1.152-1.35l-.199-1.217a1.164 1.164 0 00-1.15-.979M157.082 93.039h-41.69c-.718 0-1.265.643-1.15 1.35l.196 1.217c.091.564.58.978 1.151.978h41.69c.718 0 1.265-.642 1.15-1.35l-.198-1.217a1.164 1.164 0 00-1.15-.978M147.152 105.052l-19.293.033c-.718 0-1.265.643-1.15 1.352l.196 1.215c.092.565.58.98 1.151.98l19.292-.035c.719 0 1.266-.642 1.15-1.35l-.197-1.217a1.164 1.164 0 00-1.15-.978"/>
        <path fill="#00373E" d="M473.488 45.51l9.572-42.115c.495-1.95-.598-3.395-2.567-3.395l-67.964.74c-2.416 0-5.13 2.145-5.739 4.537l-8.398 36.954-5.142 20.924c-.272 1.106 1.043 1.423 2.035.49l13.796-12.957 58.666-.64c2.418 0 5.132-2.144 5.741-4.537"/>
        <path fill="#FFF" d="M461.353 13.676H424.04c-.641 0-1.36.575-1.511 1.21l-.26 1.088c-.12.505.167.876.68.876h37.31c.641 0 1.362-.576 1.513-1.21l.259-1.088c.12-.505-.167-.876-.68-.876M458.645 23.58h-37.311c-.642 0-1.361.575-1.512 1.209l-.259 1.088c-.12.506.167.876.679.876h37.31c.642 0 1.363-.574 1.513-1.209l.26-1.088c.12-.506-.167-.876-.68-.876M445.458 34.33l-17.278.031c-.643 0-1.363.575-1.513 1.21l-.26 1.088c-.12.505.167.876.68.876l17.278-.03c.641 0 1.362-.575 1.513-1.21l.259-1.088c.12-.505-.166-.876-.679-.876"/>
        <path fill="#F95858" d="M86.34 116.139c.932.774 2.324-.03 2.117-1.225L79.234 61.74a3.577 3.577 0 00-3.541-3.062l-61.05.666a3.578 3.578 0 00-3.54 4.096l6.561 37.996a3.577 3.577 0 003.542 3.062l47.006-.514a9.431 9.431 0 016.133 2.18l11.995 9.975z"/>
        <path fill="#FFF" d="M67.331 74.637h-41.69c-.718 0-1.265.643-1.15 1.352l.196 1.215c.091.565.58.98 1.15.98h41.691c.718 0 1.265-.644 1.15-1.352l-.197-1.216a1.165 1.165 0 00-1.15-.979M68.732 85.703h-41.69c-.718 0-1.266.643-1.151 1.353l.197 1.214c.09.565.579.98 1.15.98h41.69c.719 0 1.266-.644 1.151-1.352l-.198-1.216a1.165 1.165 0 00-1.15-.979"/>
        <path fill="#1D54B5" d="M408.181 204.954l-.224 8.37-5.024 194.36h-20.081l-17.79-166.534s-.016.015-.016.047l-22.613 56.148 15.432 110.335-7.423.063-12.273.115s-36.718-110.11-35.98-117.244c.755-7.117 28.317-84.936 28.317-84.936l77.675-.724z"/>
        <path fill="#F95858" d="M410.129 84.655L372.404 79.469 371.521 79.342 353.479 79.421 353.319 79.453 331.772 84.845 331.772 206.018 410.129 206.018z"/>
        <path fill="#FFB19E" d="M474.686 108.198s2.743-17.13 4.734-17.213c1.99-.083 1.774 7.504 1.774 7.504s11.966-12.728 16.748-9.604c4.782 3.123-11.471 23.314-11.471 23.314l-11.785-4.001z"/>
        <path fill="#E21047" d="M353.51 79.518l2.044 133.806H327.34l-1.993-36.622-37.433-.61c-3.89.126-6.772-3.577-5.696-7.318l18.648-64.837a22.04 22.04 0 0115.855-15.327l36.596-9.156.193.064zM487.69 112.743l-36.293 74.556c-2.298 4.177-8.257 4.273-10.717.209l-28.403-47.072-1.413 72.889h-30.138l-8.435-133.823.113-.032 38.332 5.269a22.221 22.221 0 0116.659 12.273L446.785 137a1.518 1.518 0 002.523.304l24.663-29.464 13.72 4.904z"/>
        <path fill="#E21047" d="M325.171 177.057L361.95 177.057 362.304 158.224 325.525 157.69z"/>
        <path fill="#FFB19E" d="M362.18 171.855c10.374-.379 21.47-4.09 26.663-10.19 1.153-1.356.171-3.442-1.607-3.442H362.02l.16 13.632z"/>
        <path fill="#AB163D" d="M347.835 177.828L347.87 177.224 325.367 177.059 327.341 213.325 334.054 183.276z"/>
        <path fill="#0E367C" d="M407.956 213.324L402.932 407.684 401.519 407.684 388.034 213.324z"/>
        <path fill="#AB163D" d="M362.261 158.09s-49.894 3.614-49.572 2.665l8.66-29.845.129.45.851 20.82c.111 2.827 37.329 5.171 39.932 5.91M451.396 187.298l36.294-74.556-.17-.055c-3.85-.019-37.62 70.588-41.172 72.366-4.046 2.022-34.072-44.616-34.072-44.616l28.405 47.071c2.458 4.064 8.418 3.967 10.715-.21"/>
        <path fill="#13448C" d="M340.45 407.648c-4.331 8.87-24.913 13.352-24.913 13.352s-1.484 2.616.866 5.927c2.35 3.311 24.007 1.283 26.723.68 2.715-.603 4.583-2.804 4.583-2.804s1.82 1.98 2.84 2.468c1.018.491 6.547-.618 6.547-.618 1.302-3.528.005-16.999-.369-19.149l-16.278.144zM401.05 407.648c4.33 8.87 24.912 13.352 24.912 13.352s1.484 2.616-.866 5.927c-2.35 3.311-24.007 1.283-26.722.68-2.716-.603-4.584-2.804-4.584-2.804s-1.821 1.98-2.84 2.468c-1.018.491-6.548-.618-6.548-.618-1.301-3.528-.004-16.999.37-19.149l16.277.144z"/>
        <path fill="#0E367C" d="M342.433 297.345l15.432 110.335-7.423.064c-4.578-23.76-20.588-103.201-19.993-108.182.69-5.943 33.585-56.677 34.597-58.364l-22.613 56.147z"/>
        <path fill="#FFB19E" d="M372.324 79.586c-2.735 2.183-9.344 6.838-9.344 6.838s-6.726-4.609-9.505-6.82l-.022-15.97h18.87v15.952z"/>
        <path fill="#FFB19E" d="M372.33 63.635v6.679c-5.463 4.531-13.389 4.547-18.87.078v-6.757h18.87z"/>
        <path fill="#13448C" d="M341.945 53.311h42.4L385 41.507c9.374-3.965 2.344-26.316 2.344-26.316.54 5.407-14.06 5.587-19.828 4.686-5.768-.902-9.734 1.442-9.734 1.442s-18.385-3.965-17.305 21.811c.165 3.895.683 7.182 1.47 10.181"/>
        <path fill="#FFB19E" d="M379.861 41.49v10.638c0 4.552-1.872 8.898-5.177 12.017-.54.479-1.08.997-1.642 1.517-5.717 5.386-14.66 5.386-20.375 0l-1.622-1.517a16.411 16.411 0 01-5.199-11.984v-8.118s4.914-3.292 11.671-11.35c0 0 7.474 7.173 22.344 8.796"/>
        <path fill="#F48F7A" d="M372.33 66.282v4.032c-5.463 4.531-13.389 4.547-18.87.078v-4.048c5.481 4.484 13.407 4.468 18.87-.062"/>
        <path fill="#FFB19E" d="M350.07 54.56c3.293-5.276-2.262-10.832-7.54-7.54a3.277 3.277 0 00-1.026 1.026c-3.304 5.278 2.261 10.844 7.54 7.54a3.258 3.258 0 001.025-1.027M383.941 54.562c3.22-5.153-2.003-10.573-7.162-7.759a4.077 4.077 0 00-1.623 1.622c-2.816 5.16 2.606 10.384 7.759 7.162a3.258 3.258 0 001.026-1.025"/>
        <path fill="#A31919" d="M383.78 43.33h-1.611V37.75c0-9.27-8.455-16.814-18.85-16.814h-.794c-10.392 0-18.849 7.544-18.849 16.814v5.581h-1.611V37.75c0-10.117 9.177-18.348 20.46-18.348h.795c11.281 0 20.46 8.23 20.46 18.348v5.581z"/>
        <path fill="#F95858" d="M382.439 40.354a4.56 4.56 0 00-4.547 4.546v8.105a4.56 4.56 0 004.547 4.546 4.56 4.56 0 004.547-4.546V44.9a4.56 4.56 0 00-4.547-4.546"/>
        <path fill="#CC3241" d="M382.439 40.354c-.478 0-.931.096-1.363.233 1.835.585 3.182 2.29 3.182 4.313v8.105c0 2.023-1.347 3.728-3.182 4.313.432.139.885.233 1.363.233a4.56 4.56 0 004.547-4.546V44.9a4.56 4.56 0 00-4.547-4.546"/>
        <path fill="#F95858" d="M343.404 40.354a4.56 4.56 0 00-4.547 4.546v8.105a4.56 4.56 0 004.547 4.546 4.56 4.56 0 004.546-4.546V44.9a4.56 4.56 0 00-4.546-4.546"/>
        <path fill="#CC3241" d="M343.404 40.354c-.478 0-.93.096-1.362.233 1.834.585 3.182 2.29 3.182 4.313v8.105c0 2.023-1.348 3.728-3.182 4.313.431.139.884.233 1.362.233a4.56 4.56 0 004.546-4.546V44.9a4.56 4.56 0 00-4.546-4.546"/>
        <path fill="#FF4751" d="M370.16 62.628l-.057-.905c5.183-.327 9.635-6.777 9.68-6.842l.748.51c-.19.282-4.75 6.881-10.372 7.237"/>
        <path fill="#FF4751" d="M371.163 62.225c-.032-.848-1.247-1.442-2.715-1.326-1.468.116-2.63.898-2.6 1.746.032.847 1.246 1.44 2.715 1.325 1.466-.116 2.63-.898 2.6-1.745"/>
        <path fill="#13448C" d="M392.692 102.933h-65.86c-3.583 0-6.387 3.1-6.235 6.861l1.727 42.39c.14 3.413 3.016 6.186 6.394 6.186h62.088c3.379 0 6.256-2.773 6.395-6.185l1.727-42.39c.153-3.762-2.653-6.862-6.236-6.862"/>
        <path fill="#1D54B5" d="M392.692 102.933h-65.86c-1.803 0-3.409.788-4.54 2.05.542-.16 1.103-.274 1.699-.274h65.858c3.583 0 6.389 3.1 6.235 6.863l-1.727 42.39c-.065 1.583-.734 3.015-1.755 4.108 2.54-.775 4.484-3.104 4.599-5.884l1.727-42.392c.153-3.761-2.653-6.861-6.236-6.861"/>
        <path fill="#4286E8" d="M366.747 131.75a7.463 7.463 0 10-14.926-.001 7.463 7.463 0 0014.926 0"/>
    </g>
</svg>
